<svg width="512" height="512" viewBox="0 0 512 512" fill="none" xmlns="http://www.w3.org/2000/svg">
<path fill-rule="evenodd" clip-rule="evenodd" d="M357.939 42.5986C354.743 43.8258 339.982 51.813 338.844 52.9307C336.66 55.0755 341.716 69.7861 345.985 78.5809C355.354 97.8825 351.618 111.218 343.627 137.402C322.847 205.488 237.611 242.813 161.34 217.226C146.404 212.215 134.124 206.58 119.789 196.67C109.083 189.269 109.177 190.422 119.973 198.919C143.199 217.199 165.485 226.295 193.882 230.913C205.175 232.749 231.922 232.756 242.652 230.926C253.313 229.108 268.268 224.762 275.91 221.263C276.798 220.856 278.129 220.343 278.869 220.122C281.62 219.298 298.123 210.481 302.536 207.478C329.958 188.813 347.474 165.051 355.203 136.032C356.661 130.556 359.015 106.667 359.015 104.005C359.015 102.834 359.181 100.3 359.384 98.3727L359.753 94.868L360.701 100.073C362.933 112.317 359.803 143.354 353.836 155.317C351.664 159.671 353.744 162.784 366.173 173.773C381.365 187.205 395.151 206.59 404.202 227.25C407.809 235.484 408.793 235.904 411.891 230.531C415.258 224.697 421.41 207.696 421.41 204.23C421.41 202.391 419.931 200.947 416.031 198.978C411.862 196.873 406.966 193.575 404.11 190.946C400.159 187.31 399.583 180.365 402.647 173.293C405.733 166.17 408.9 166.812 417.474 176.296C422.052 181.36 422.724 181.662 424.678 179.54C428.102 175.818 424.459 153.098 418.509 141.076C413.897 131.756 405.988 121.218 398.267 114.106C381.851 98.9847 375.402 91.8954 372.665 81.7464C371.13 76.0563 372.43 61.1814 374.277 53.5788C376.05 46.2813 375.897 45.7252 371.558 43.702C367.957 42.0228 360.923 41.4531 357.939 42.5986ZM372.479 153.882C370.181 154.898 369.791 155.494 369.78 158.009C369.771 160.24 370.648 161.611 375.103 166.343C382.207 173.886 391.114 183.226 391.693 179.687C391.962 178.043 391.693 173.112 391.962 167.634C392.231 162.155 391.938 159.961 391.342 158.364C389.966 154.678 377.423 151.699 372.479 153.882Z" fill="url(#paint0_linear_3_88)"/>
<path d="M338.037 184.732C338.037 182.735 343.596 173.61 347.095 169.862C350.566 166.144 351.711 166.849 366.342 181.728C383.811 199.493 394.601 216.188 401.188 235.646C404.371 245.049 404.358 245.602 400.824 250.922C395.246 259.322 394.339 259.134 378.641 246.315C359.688 228.172 352.451 218.236 350.006 222.693C348.584 225.287 351.441 236.854 367.106 253C384.046 270.46 384.789 271.537 382.909 275.883C381.699 278.68 369.105 291.785 365.209 294.301C360.68 297.227 360.006 296.626 358.214 288.062C354.156 268.679 342.146 246.423 326.233 228.8C309.224 209.964 309.883 211.47 316.02 205.463C321.836 199.77 323.475 198.822 326.886 199.18C330.232 199.532 339.591 202.627 350.408 206.958C363.612 212.244 368.192 217.727 369.78 216.667C372.194 215.056 369.712 208.552 365.319 204.245C359.497 198.536 353.02 194.378 344.31 190.754C340.052 188.983 338.037 187.048 338.037 184.732Z" fill="url(#paint1_linear_3_88)"/>
<path d="M292.316 220.148C302.6 214.616 303.788 214.945 315.865 226.673C334.704 244.968 348.555 270.249 352.854 294.186C354.309 302.286 353.088 304.789 345.092 310.098C335.207 316.661 329.532 318.183 327 314.951C324.874 312.237 324.45 309.12 324.082 293.541C323.668 276.008 324.456 271.198 320.153 271.179C313.843 271.152 305.361 282.311 305.361 288.71C305.361 293.046 306.745 306.822 311.142 315.729C315.043 323.63 314.264 326.057 306.654 329.727C297.08 334.343 282.013 338.771 279.863 337.599C277.611 336.371 277.399 333.349 279.202 328.146C284.425 313.067 285.956 279.936 282.624 254.095C281.191 242.981 280.332 232.52 280.694 230.602C281.327 227.252 284.626 224.285 292.316 220.148ZM308.134 240.262C303.249 235.19 301.198 234.459 298.916 236.975C296.704 239.415 296.081 242.058 296.081 249.016C296.081 259.437 299.034 269.261 302.536 269.261C305.316 269.261 314.528 256.64 315.865 254.095C317.397 251.179 314.071 246.426 308.134 240.262Z" fill="url(#paint2_linear_3_88)"/>
<path d="M248.209 239.609C248.209 235.943 249.046 235.463 260.625 232.5C273.634 229.171 273.914 229.57 276.189 254.643C278.733 282.679 277.734 306.863 273.395 322.304C272.506 325.467 271.416 329.412 270.974 331.069C268.791 339.248 266.4 341.126 256.697 342.284C247.759 343.351 246.746 342.567 245.052 333.261C240.196 306.599 239.499 303.318 237.084 295.732C234.789 288.519 231.977 283.361 228.192 281.314C224.14 279.123 226.023 291.45 227.367 299.393C228.273 303.058 228.828 314.672 229.207 326.149C229.738 342.168 228.758 343.491 216.764 342.956C209.613 342.637 198.602 340.942 196.603 339.852C193.876 338.366 193.526 336.206 195.533 333.248C198.324 329.135 203.032 318.357 204.74 312.168C208.678 297.911 210.096 272.489 207.736 258.478C205.962 247.947 205.881 242.27 207.478 240.379L208.849 238.755H217.406C225.833 238.755 225.996 238.778 228.192 240.257C231.74 242.647 235.355 245.641 242.652 259.948C248.713 271.833 253.889 286.245 257.353 282.31C262.33 276.657 259.785 268.267 253.193 252.998C248.625 242.418 248.209 241.302 248.209 239.609Z" fill="url(#paint3_linear_3_88)"/>
<path d="M83.6144 186.204C83.6144 184.945 83.9151 183.608 84.2825 183.234C85.4841 182.01 93.4653 183.501 97.8685 185.772C98.756 186.23 101.661 188.735 104.323 191.339C115.325 202.099 128.888 211.669 146.795 221.307L184.947 234.386C196.28 237.319 195.175 238.466 197.321 250.311C201.579 273.812 200.905 292.613 195.114 311.894C192.073 322.022 185.757 333.479 182.293 335.153C179.311 336.595 173.535 334.989 165.715 331.36C165.715 331.36 158.919 329.426 143.589 319.838C128.259 310.251 124.763 309.429 100.493 286.896C76.2238 264.362 63.8023 231.176 66.3201 206.154C67.1797 197.608 68.7875 194.759 71.5156 196.946C73.0701 198.19 73.7425 197.869 74.0211 195.748C74.169 194.624 74.5633 194.33 76.2249 194.105C77.8794 193.881 78.4184 193.482 79.1833 191.915C79.6975 190.862 80.6022 189.91 81.1939 189.801C83.02 189.466 83.6144 188.582 83.6144 186.204Z" fill="url(#paint4_linear_3_88)"/>
<path d="M84.2827 183.235C85.4844 182.011 93.4655 183.501 97.8687 185.772C98.7562 186.23 101.66 188.736 104.323 191.339C115.324 202.099 128.888 211.669 146.795 221.307L184.947 234.386C196.28 237.319 195.175 238.466 197.321 250.311C199.307 261.274 200.219 271.215 200.04 280.659C144.316 261.761 93.8727 229.891 68.0356 197.875C68.9116 196.049 70.0522 195.774 71.5151 196.946C73.0696 198.191 73.7424 197.869 74.021 195.749C74.1689 194.624 74.5636 194.33 76.2251 194.105C77.8793 193.881 78.4183 193.482 79.1831 191.916C79.6973 190.862 80.6022 189.91 81.1938 189.801C83.02 189.466 83.6147 188.582 83.6147 186.204C83.6148 184.945 83.9154 183.609 84.2827 183.235Z" fill="white" fill-opacity="0.12"/>
<path d="M342.276 69.9092C352.59 74.2359 362.874 78.5783 372.991 82.877C375.903 92.4387 382.468 99.5525 398.267 114.105C405.988 121.218 413.897 131.756 418.509 141.075C424.458 153.097 428.102 175.818 424.678 179.539C422.724 181.662 422.051 181.36 417.474 176.296C408.9 166.812 405.733 166.17 402.646 173.293C399.583 180.365 400.159 187.311 404.11 190.946C406.967 193.575 411.862 196.873 416.031 198.978C419.931 200.946 421.41 202.391 421.41 204.23C421.41 207.696 415.258 224.696 411.892 230.531C408.793 235.904 407.808 235.484 404.201 227.25C395.15 206.59 381.364 187.204 366.173 173.772C353.744 162.784 351.664 159.671 353.836 155.316C359.803 143.354 362.932 112.317 360.701 100.072L359.753 94.8682L359.384 98.373C359.18 100.3 359.015 102.835 359.015 104.005C359.015 106.669 356.661 130.556 355.202 136.032C347.473 165.052 329.958 188.813 302.536 207.479C298.123 210.482 281.622 219.297 278.869 220.121C278.13 220.342 276.798 220.856 275.91 221.263C268.268 224.762 253.312 229.108 242.651 230.927C231.921 232.757 205.175 232.749 193.882 230.913C165.485 226.296 143.199 217.199 119.973 198.919C109.177 190.422 109.083 189.268 119.789 196.67C134.124 206.58 146.404 212.215 161.34 217.226C237.611 242.813 322.848 205.488 343.627 137.401C351.618 111.218 355.353 97.8825 345.984 78.5811C344.749 76.0365 343.449 72.9965 342.276 69.9092ZM391.342 158.363C389.965 154.678 377.423 151.698 372.479 153.882C370.18 154.897 369.791 155.494 369.78 158.009C369.771 160.24 370.648 161.612 375.104 166.344C382.207 173.887 391.113 183.226 391.692 179.687C391.961 178.043 391.693 173.112 391.962 167.634C392.231 162.155 391.938 159.96 391.342 158.363Z" fill="white" fill-opacity="0.14"/>
<path d="M347.095 169.862C350.566 166.145 351.711 166.85 366.342 181.729C383.811 199.493 394.6 216.188 401.187 235.647C404.371 245.049 404.358 245.602 400.824 250.922C395.246 259.322 394.339 259.134 378.641 246.315C359.689 228.172 352.452 218.236 350.007 222.693C348.584 225.288 351.441 236.854 367.105 252.999C375.278 261.423 379.679 266.035 381.836 269.039C373.561 273.702 365.136 277.971 356.63 281.706C351.522 263.936 340.432 244.523 326.233 228.8C309.224 209.964 309.883 211.47 316.019 205.463C321.835 199.77 323.475 198.821 326.886 199.18C330.232 199.531 339.591 202.627 350.408 206.958C363.611 212.245 368.192 217.727 369.78 216.667C372.194 215.056 369.712 208.551 365.318 204.244C359.497 198.536 353.02 194.378 344.309 190.754C340.052 188.983 338.037 187.048 338.037 184.732C338.037 182.735 343.596 173.61 347.095 169.862Z" fill="white" fill-opacity="0.24"/>
<path d="M292.317 220.148C302.6 214.616 303.788 214.945 315.865 226.673C332.118 242.457 344.658 263.442 350.555 284.277C341.765 287.854 332.911 290.834 324.071 293.072C323.682 275.922 324.417 271.198 320.153 271.179C313.843 271.152 305.362 282.311 305.361 288.71C305.362 290.298 305.548 293.153 305.999 296.572C298.598 297.544 291.247 297.916 283.994 297.602C284.79 283.571 284.392 267.807 282.624 254.095C281.191 242.981 280.332 232.52 280.695 230.602C281.327 227.252 284.627 224.284 292.317 220.148ZM308.133 240.262C303.248 235.19 301.198 234.459 298.916 236.975C296.704 239.414 296.081 242.058 296.081 249.016C296.081 259.437 299.034 269.261 302.536 269.261C305.317 269.259 314.528 256.64 315.865 254.095C317.397 251.179 314.07 246.426 308.133 240.262Z" fill="white" fill-opacity="0.2"/>
<path d="M260.625 232.5C273.633 229.17 273.915 229.57 276.189 254.643C277.61 270.3 277.924 284.755 277.17 297.157C263.299 296.047 249.22 293.807 235.217 290.627C233.289 286.088 231.01 282.838 228.192 281.314C225.859 280.052 225.495 283.603 225.861 288.36C220.107 286.879 214.376 285.244 208.689 283.471C209.12 274.182 208.846 265.068 207.736 258.478C205.962 247.947 205.881 242.27 207.477 240.379L208.848 238.756H217.406C225.833 238.756 225.997 238.778 228.192 240.257C231.74 242.647 235.355 245.641 242.651 259.948C248.713 271.833 253.889 286.245 257.353 282.31C262.33 276.658 259.785 268.267 253.192 252.998C248.625 242.418 248.209 241.301 248.209 239.609C248.209 235.942 249.046 235.463 260.625 232.5Z" fill="white" fill-opacity="0.18"/>
<path d="M393.197 405.384C393.197 402.952 393.661 400.648 394.589 398.472C395.517 396.296 396.797 394.376 398.429 392.712C400.093 391.016 402.013 389.688 404.189 388.728C406.365 387.768 408.701 387.288 411.197 387.288C413.661 387.288 415.981 387.768 418.157 388.728C420.333 389.688 422.253 391.016 423.917 392.712C425.613 394.376 426.925 396.296 427.853 398.472C428.813 400.648 429.293 402.952 429.293 405.384C429.293 407.88 428.813 410.216 427.853 412.392C426.925 414.568 425.613 416.488 423.917 418.152C422.253 419.784 420.333 421.064 418.157 421.992C415.981 422.92 413.661 423.384 411.197 423.384C408.701 423.384 406.365 422.92 404.189 421.992C402.013 421.064 400.093 419.784 398.429 418.152C396.797 416.488 395.517 414.568 394.589 412.392C393.661 410.216 393.197 407.88 393.197 405.384ZM400.397 405.384C400.397 406.952 400.669 408.424 401.213 409.8C401.789 411.144 402.573 412.344 403.565 413.4C404.589 414.424 405.757 415.224 407.069 415.8C408.413 416.376 409.869 416.664 411.437 416.664C412.941 416.664 414.333 416.376 415.613 415.8C416.925 415.224 418.061 414.424 419.021 413.4C419.981 412.344 420.733 411.144 421.277 409.8C421.821 408.424 422.093 406.952 422.093 405.384C422.093 403.784 421.805 402.296 421.229 400.92C420.685 399.544 419.917 398.344 418.925 397.32C417.965 396.264 416.829 395.448 415.517 394.872C414.205 394.296 412.781 394.008 411.245 394.008C409.709 394.008 408.285 394.296 406.973 394.872C405.661 395.448 404.509 396.264 403.517 397.32C402.525 398.344 401.757 399.544 401.213 400.92C400.669 402.296 400.397 403.784 400.397 405.384Z" fill="black"/>
<path d="M379.279 387.672H386.239V423H379.279V387.672Z" fill="black"/>
<path d="M342.247 423V387.672H352.807C356.359 387.672 359.383 388.2 361.879 389.256C364.375 390.312 366.375 391.72 367.879 393.48C369.415 395.24 370.536 397.208 371.24 399.384C371.944 401.56 372.296 403.752 372.296 405.96C372.296 408.584 371.815 410.952 370.855 413.064C369.927 415.144 368.648 416.936 367.016 418.44C365.384 419.912 363.496 421.048 361.352 421.848C359.208 422.616 356.935 423 354.535 423H342.247ZM349.207 416.28H353.336C355.096 416.28 356.695 416.056 358.135 415.608C359.575 415.128 360.808 414.44 361.832 413.544C362.888 412.648 363.688 411.528 364.232 410.184C364.808 408.808 365.095 407.24 365.095 405.48C365.095 403.176 364.712 401.304 363.944 399.864C363.208 398.392 362.28 397.256 361.16 396.456C360.072 395.656 358.951 395.112 357.799 394.824C356.647 394.504 355.671 394.344 354.871 394.344H349.207V416.28Z" fill="black"/>
<path d="M312.206 409.944C312.206 411.064 312.542 412.136 313.214 413.16C313.886 414.184 314.766 415.016 315.854 415.656C316.974 416.296 318.19 416.616 319.502 416.616C320.942 416.616 322.222 416.296 323.342 415.656C324.462 415.016 325.342 414.184 325.982 413.16C326.654 412.136 326.99 411.064 326.99 409.944V387.672H333.854V410.088C333.854 412.68 333.214 414.984 331.934 417C330.654 418.984 328.926 420.552 326.75 421.704C324.574 422.824 322.158 423.384 319.502 423.384C316.878 423.384 314.478 422.824 312.302 421.704C310.158 420.552 308.446 418.984 307.166 417C305.886 414.984 305.246 412.68 305.246 410.088V387.672H312.206V409.944Z" fill="black"/>
<path d="M275.441 387.672H299.249V394.392H290.657V423H283.697V394.392H275.441V387.672Z" fill="black"/>
<path d="M268.721 396.216C267.377 395.48 266.001 394.872 264.593 394.392C263.217 393.912 261.921 393.672 260.705 393.672C259.201 393.672 258.017 393.976 257.153 394.584C256.289 395.192 255.857 396.104 255.857 397.32C255.857 398.152 256.177 398.904 256.817 399.576C257.489 400.216 258.337 400.792 259.361 401.304C260.417 401.816 261.505 402.28 262.625 402.696C263.649 403.08 264.657 403.544 265.649 404.088C266.673 404.6 267.585 405.256 268.385 406.056C269.185 406.824 269.825 407.8 270.305 408.984C270.785 410.136 271.025 411.56 271.025 413.256C271.025 415.048 270.561 416.712 269.633 418.248C268.705 419.784 267.345 421.032 265.553 421.992C263.761 422.92 261.553 423.384 258.929 423.384C257.585 423.384 256.209 423.256 254.801 423C253.425 422.712 252.065 422.296 250.721 421.752C249.377 421.176 248.081 420.456 246.833 419.592L249.905 414.168C250.737 414.776 251.633 415.32 252.593 415.8C253.585 416.248 254.577 416.6 255.569 416.856C256.561 417.112 257.473 417.24 258.305 417.24C259.137 417.24 259.969 417.128 260.801 416.904C261.665 416.648 262.369 416.232 262.913 415.656C263.489 415.08 263.777 414.28 263.777 413.256C263.777 412.552 263.537 411.912 263.057 411.336C262.609 410.76 261.985 410.232 261.185 409.752C260.417 409.272 259.569 408.856 258.641 408.504C257.553 408.088 256.433 407.608 255.281 407.064C254.129 406.52 253.041 405.864 252.017 405.096C251.025 404.296 250.209 403.32 249.569 402.168C248.961 400.984 248.657 399.544 248.657 397.848C248.657 395.8 249.105 394.024 250.001 392.52C250.929 391.016 252.225 389.832 253.889 388.968C255.553 388.072 257.473 387.576 259.649 387.48C262.497 387.48 264.801 387.816 266.561 388.488C268.353 389.16 269.953 389.96 271.361 390.888L268.721 396.216Z" fill="black"/>
<path d="M196.842 423L212.778 386.28H213.162L229.098 423H221.034L210.858 397.176L215.898 393.72L203.706 423H196.842ZM207.738 410.232H218.346L220.794 416.088H205.578L207.738 410.232Z" fill="black"/>
<path d="M191.536 424.44L164.752 400.248L166.816 401.4L166.96 423H159.904V386.28H160.192L186.4 410.376L184.864 409.704L184.72 387.672H191.728V424.44H191.536Z" fill="black"/>
<path d="M122.498 423L138.434 386.28H138.818L154.754 423H146.69L136.514 397.176L141.554 393.72L129.362 423H122.498ZM133.394 410.232H144.002L146.45 416.088H131.234L133.394 410.232Z" fill="black"/>
<path d="M117.192 424.44L90.408 400.248L92.472 401.4L92.616 423H85.56V386.28H85.848L112.056 410.376L110.52 409.704L110.376 387.672H117.384V424.44H117.192Z" fill="black"/>
<path d="M372.675 471.728C372.675 471.376 372.803 471.08 373.059 470.84C373.331 470.584 373.627 470.456 373.947 470.456C374.235 470.456 374.507 470.584 374.763 470.84C375.035 471.08 375.171 471.376 375.171 471.728C375.171 472.112 375.035 472.424 374.763 472.664C374.507 472.888 374.235 473 373.947 473C373.627 473 373.331 472.888 373.059 472.664C372.803 472.424 372.675 472.112 372.675 471.728Z" fill="black"/>
<path d="M365.943 473.24C364.807 473.24 363.831 473.016 363.015 472.568C362.199 472.104 361.567 471.48 361.119 470.696C360.687 469.896 360.471 468.984 360.471 467.96C360.471 466.984 360.719 466.096 361.215 465.296C361.711 464.496 362.375 463.856 363.207 463.376C364.039 462.896 364.967 462.656 365.991 462.656C367.303 462.656 368.391 463.04 369.255 463.808C370.119 464.576 370.703 465.632 371.007 466.976L362.823 469.856L362.295 468.536L369.015 466.088L368.535 466.4C368.343 465.872 368.023 465.416 367.575 465.032C367.127 464.632 366.543 464.432 365.823 464.432C365.215 464.432 364.671 464.584 364.191 464.888C363.711 465.176 363.335 465.576 363.063 466.088C362.791 466.6 362.655 467.184 362.655 467.84C362.655 468.528 362.799 469.136 363.087 469.664C363.375 470.176 363.767 470.584 364.263 470.888C364.775 471.176 365.351 471.32 365.991 471.32C366.423 471.32 366.839 471.24 367.239 471.08C367.655 470.92 368.039 470.712 368.391 470.456L369.423 472.112C368.927 472.448 368.367 472.72 367.743 472.928C367.135 473.136 366.535 473.24 365.943 473.24Z" fill="black"/>
<path d="M358.453 472.088C358.005 472.44 357.469 472.72 356.845 472.928C356.221 473.136 355.597 473.24 354.973 473.24C353.885 473.24 352.933 473.024 352.117 472.592C351.301 472.16 350.661 471.56 350.197 470.792C349.749 470.008 349.525 469.088 349.525 468.032C349.525 466.976 349.765 466.056 350.245 465.272C350.741 464.488 351.381 463.888 352.165 463.472C352.965 463.04 353.821 462.824 354.733 462.824C355.533 462.824 356.245 462.936 356.869 463.16C357.509 463.384 358.053 463.688 358.501 464.072L357.397 465.512C357.109 465.288 356.757 465.088 356.341 464.912C355.925 464.736 355.453 464.648 354.925 464.648C354.349 464.648 353.813 464.8 353.317 465.104C352.837 465.392 352.453 465.792 352.165 466.304C351.893 466.816 351.757 467.392 351.757 468.032C351.757 468.64 351.901 469.208 352.189 469.736C352.477 470.248 352.877 470.656 353.389 470.96C353.901 471.248 354.485 471.392 355.141 471.392C355.573 471.392 355.965 471.328 356.317 471.2C356.685 471.072 357.013 470.896 357.301 470.672L358.453 472.088Z" fill="black"/>
<path d="M340.432 473.384C339.536 473.384 338.792 473.112 338.2 472.568C337.624 472.008 337.32 471.288 337.288 470.408V463.064H339.52V469.616C339.552 470.16 339.704 470.6 339.976 470.936C340.264 471.272 340.712 471.448 341.32 471.464C341.88 471.464 342.376 471.304 342.808 470.984C343.256 470.648 343.616 470.2 343.888 469.64C344.16 469.064 344.296 468.416 344.296 467.696V463.064H346.528V473H344.488L344.296 470.552L344.416 470.984C344.224 471.448 343.928 471.864 343.528 472.232C343.144 472.584 342.688 472.864 342.16 473.072C341.632 473.28 341.056 473.384 340.432 473.384Z" fill="black"/>
<path d="M327.093 473.24C326.181 473.24 325.349 473.024 324.597 472.592C323.861 472.144 323.277 471.52 322.845 470.72C322.413 469.904 322.197 468.968 322.197 467.912C322.197 466.808 322.421 465.864 322.869 465.08C323.333 464.296 323.957 463.696 324.741 463.28C325.525 462.864 326.405 462.656 327.381 462.656C328.165 462.656 328.909 462.824 329.613 463.16C330.333 463.496 330.893 463.96 331.293 464.552L331.197 465.344V454.424H333.405V473H331.173V470.528L331.413 471.152C330.949 471.76 330.349 472.264 329.613 472.664C328.877 473.048 328.037 473.24 327.093 473.24ZM327.789 471.344C328.381 471.344 328.909 471.24 329.373 471.032C329.837 470.808 330.221 470.504 330.525 470.12C330.829 469.736 331.045 469.28 331.173 468.752V466.88C331.045 466.4 330.813 465.984 330.477 465.632C330.157 465.264 329.765 464.976 329.301 464.768C328.853 464.544 328.349 464.432 327.789 464.432C327.181 464.432 326.621 464.584 326.109 464.888C325.613 465.176 325.213 465.576 324.909 466.088C324.605 466.6 324.453 467.192 324.453 467.864C324.453 468.52 324.605 469.112 324.909 469.64C325.213 470.152 325.621 470.568 326.133 470.888C326.645 471.192 327.197 471.344 327.789 471.344Z" fill="black"/>
<path d="M309.119 467.936C309.119 466.944 309.351 466.048 309.815 465.248C310.295 464.448 310.951 463.816 311.783 463.352C312.615 462.888 313.559 462.656 314.615 462.656C315.703 462.656 316.655 462.888 317.471 463.352C318.287 463.816 318.919 464.448 319.367 465.248C319.815 466.048 320.039 466.944 320.039 467.936C320.039 468.928 319.815 469.832 319.367 470.648C318.919 471.448 318.279 472.08 317.447 472.544C316.631 473.008 315.679 473.24 314.591 473.24C313.535 473.24 312.591 473.024 311.759 472.592C310.943 472.144 310.295 471.528 309.815 470.744C309.351 469.944 309.119 469.008 309.119 467.936ZM311.351 467.96C311.351 468.6 311.495 469.184 311.783 469.712C312.071 470.224 312.455 470.632 312.935 470.936C313.431 471.24 313.975 471.392 314.567 471.392C315.191 471.392 315.743 471.24 316.223 470.936C316.719 470.632 317.103 470.224 317.375 469.712C317.647 469.184 317.783 468.6 317.783 467.96C317.783 467.32 317.647 466.744 317.375 466.232C317.103 465.704 316.719 465.288 316.223 464.984C315.743 464.664 315.191 464.504 314.567 464.504C313.959 464.504 313.407 464.664 312.911 464.984C312.431 465.304 312.047 465.728 311.759 466.256C311.487 466.768 311.351 467.336 311.351 467.96Z" fill="black"/>
<path d="M303.373 463.064L303.589 465.944L303.469 465.56C303.725 464.952 304.093 464.44 304.573 464.024C305.069 463.592 305.581 463.264 306.109 463.04C306.653 462.8 307.125 462.68 307.525 462.68L307.405 464.888C306.653 464.84 305.989 464.984 305.413 465.32C304.853 465.656 304.405 466.104 304.069 466.664C303.749 467.224 303.589 467.824 303.589 468.464V473H301.381V463.064H303.373Z" fill="black"/>
<path d="M292.292 455.648C293.556 455.648 294.636 455.864 295.532 456.296C296.428 456.712 297.116 457.32 297.596 458.12C298.092 458.92 298.34 459.888 298.34 461.024C298.34 461.712 298.236 462.392 298.028 463.064C297.82 463.72 297.484 464.32 297.02 464.864C296.572 465.392 295.98 465.816 295.244 466.136C294.508 466.456 293.612 466.616 292.556 466.616H289.988V473H287.66V455.648H292.292ZM292.532 464.384C293.22 464.384 293.788 464.272 294.236 464.048C294.684 463.824 295.036 463.544 295.292 463.208C295.548 462.856 295.732 462.488 295.844 462.104C295.956 461.72 296.012 461.376 296.012 461.072C296.012 460.72 295.956 460.36 295.844 459.992C295.732 459.608 295.54 459.264 295.268 458.96C295.012 458.64 294.668 458.384 294.236 458.192C293.82 457.984 293.3 457.88 292.676 457.88H289.988V464.384H292.532Z" fill="black"/>
<path d="M274.355 471.728C274.355 471.376 274.483 471.08 274.739 470.84C275.011 470.584 275.307 470.456 275.627 470.456C275.915 470.456 276.187 470.584 276.443 470.84C276.715 471.08 276.851 471.376 276.851 471.728C276.851 472.112 276.715 472.424 276.443 472.664C276.187 472.888 275.915 473 275.627 473C275.307 473 275.011 472.888 274.739 472.664C274.483 472.424 274.355 472.112 274.355 471.728Z" fill="black"/>
<path d="M267.818 458.696H270.05V463.112H272.786V464.864H270.05V473H267.818V464.864H265.994V463.112H267.818V458.696Z" fill="black"/>
<path d="M258.488 473.24C257.736 473.24 257.007 473.064 256.303 472.712C255.615 472.36 255.08 471.888 254.696 471.296L254.84 470.6V477.776H252.632V462.92H254.551L254.864 465.464L254.623 464.768C255.103 464.16 255.712 463.656 256.448 463.256C257.184 462.856 258.008 462.656 258.92 462.656C259.848 462.656 260.679 462.88 261.415 463.328C262.167 463.776 262.759 464.4 263.191 465.2C263.623 466 263.84 466.936 263.84 468.008C263.84 469.08 263.608 470.008 263.144 470.792C262.68 471.576 262.04 472.184 261.224 472.616C260.424 473.032 259.512 473.24 258.488 473.24ZM258.056 471.464C258.696 471.464 259.28 471.32 259.808 471.032C260.352 470.728 260.784 470.32 261.104 469.808C261.424 469.28 261.584 468.688 261.584 468.032C261.584 467.36 261.432 466.768 261.128 466.256C260.824 465.728 260.416 465.312 259.904 465.008C259.408 464.704 258.848 464.552 258.224 464.552C257.648 464.552 257.127 464.664 256.663 464.888C256.199 465.112 255.815 465.424 255.511 465.824C255.207 466.208 254.992 466.656 254.864 467.168V468.824C254.944 469.336 255.135 469.792 255.439 470.192C255.743 470.592 256.119 470.904 256.567 471.128C257.031 471.352 257.528 471.464 258.056 471.464Z" fill="black"/>
<path d="M234.819 463.064L235.011 465.296L234.915 465.104C235.283 464.352 235.803 463.76 236.475 463.328C237.163 462.896 237.947 462.68 238.827 462.68C239.387 462.68 239.883 462.768 240.315 462.944C240.747 463.12 241.099 463.376 241.371 463.712C241.659 464.032 241.843 464.432 241.923 464.912L241.803 464.984C242.187 464.264 242.715 463.704 243.387 463.304C244.075 462.888 244.795 462.68 245.547 462.68C246.523 462.68 247.291 462.96 247.851 463.52C248.427 464.064 248.723 464.776 248.739 465.656V473H246.507V466.448C246.491 465.936 246.363 465.512 246.123 465.176C245.899 464.824 245.499 464.632 244.923 464.6C244.347 464.6 243.827 464.776 243.363 465.128C242.915 465.48 242.563 465.936 242.307 466.496C242.051 467.04 241.915 467.632 241.899 468.272V473H239.667V466.448C239.651 465.936 239.515 465.512 239.259 465.176C239.019 464.824 238.611 464.632 238.035 464.6C237.443 464.6 236.923 464.776 236.475 465.128C236.027 465.48 235.675 465.936 235.419 466.496C235.179 467.056 235.059 467.656 235.059 468.296V473H232.827V463.064H234.819Z" fill="black"/>
<path d="M218.885 467.936C218.885 466.944 219.117 466.048 219.581 465.248C220.061 464.448 220.717 463.816 221.549 463.352C222.381 462.888 223.325 462.656 224.381 462.656C225.469 462.656 226.421 462.888 227.237 463.352C228.053 463.816 228.685 464.448 229.133 465.248C229.581 466.048 229.805 466.944 229.805 467.936C229.805 468.928 229.581 469.832 229.133 470.648C228.685 471.448 228.045 472.08 227.213 472.544C226.397 473.008 225.445 473.24 224.357 473.24C223.301 473.24 222.357 473.024 221.525 472.592C220.709 472.144 220.061 471.528 219.581 470.744C219.117 469.944 218.885 469.008 218.885 467.936ZM221.117 467.96C221.117 468.6 221.261 469.184 221.549 469.712C221.837 470.224 222.221 470.632 222.701 470.936C223.197 471.24 223.741 471.392 224.333 471.392C224.957 471.392 225.509 471.24 225.989 470.936C226.485 470.632 226.869 470.224 227.141 469.712C227.413 469.184 227.549 468.6 227.549 467.96C227.549 467.32 227.413 466.744 227.141 466.232C226.869 465.704 226.485 465.288 225.989 464.984C225.509 464.664 224.957 464.504 224.333 464.504C223.725 464.504 223.173 464.664 222.677 464.984C222.197 465.304 221.813 465.728 221.525 466.256C221.253 466.768 221.117 467.336 221.117 467.96Z" fill="black"/>
<path d="M213.139 463.064L213.355 465.944L213.235 465.56C213.491 464.952 213.859 464.44 214.339 464.024C214.835 463.592 215.347 463.264 215.875 463.04C216.419 462.8 216.891 462.68 217.291 462.68L217.171 464.888C216.419 464.84 215.755 464.984 215.179 465.32C214.619 465.656 214.171 466.104 213.835 466.664C213.515 467.224 213.355 467.824 213.355 468.464V473H211.147V463.064H213.139Z" fill="black"/>
<path d="M202.058 455.648C203.322 455.648 204.402 455.864 205.298 456.296C206.194 456.712 206.882 457.32 207.362 458.12C207.858 458.92 208.106 459.888 208.106 461.024C208.106 461.712 208.002 462.392 207.794 463.064C207.586 463.72 207.25 464.32 206.786 464.864C206.338 465.392 205.746 465.816 205.01 466.136C204.274 466.456 203.378 466.616 202.322 466.616H199.754V473H197.426V455.648H202.058ZM202.298 464.384C202.986 464.384 203.554 464.272 204.002 464.048C204.45 463.824 204.802 463.544 205.058 463.208C205.314 462.856 205.498 462.488 205.61 462.104C205.722 461.72 205.778 461.376 205.778 461.072C205.778 460.72 205.722 460.36 205.61 459.992C205.498 459.608 205.306 459.264 205.034 458.96C204.778 458.64 204.434 458.384 204.002 458.192C203.586 457.984 203.066 457.88 202.442 457.88H199.754V464.384H202.298Z" fill="black"/>
<path d="M184.121 471.728C184.121 471.376 184.249 471.08 184.505 470.84C184.777 470.584 185.073 470.456 185.393 470.456C185.681 470.456 185.953 470.584 186.209 470.84C186.481 471.08 186.617 471.376 186.617 471.728C186.617 472.112 186.481 472.424 186.209 472.664C185.953 472.888 185.681 473 185.393 473C185.073 473 184.777 472.888 184.505 472.664C184.249 472.424 184.121 472.112 184.121 471.728Z" fill="black"/>
<path d="M179.155 454.424H181.387V473H179.155V454.424Z" fill="black"/>
<path d="M171.294 473.24C170.158 473.24 169.182 473.016 168.366 472.568C167.55 472.104 166.918 471.48 166.47 470.696C166.038 469.896 165.822 468.984 165.822 467.96C165.822 466.984 166.07 466.096 166.566 465.296C167.062 464.496 167.726 463.856 168.558 463.376C169.39 462.896 170.318 462.656 171.342 462.656C172.654 462.656 173.742 463.04 174.606 463.808C175.47 464.576 176.054 465.632 176.358 466.976L168.174 469.856L167.646 468.536L174.366 466.088L173.886 466.4C173.694 465.872 173.374 465.416 172.926 465.032C172.478 464.632 171.894 464.432 171.174 464.432C170.566 464.432 170.022 464.584 169.542 464.888C169.062 465.176 168.686 465.576 168.414 466.088C168.142 466.6 168.006 467.184 168.006 467.84C168.006 468.528 168.15 469.136 168.438 469.664C168.726 470.176 169.118 470.584 169.614 470.888C170.126 471.176 170.702 471.32 171.342 471.32C171.774 471.32 172.19 471.24 172.59 471.08C173.006 470.92 173.39 470.712 173.742 470.456L174.774 472.112C174.278 472.448 173.718 472.72 173.094 472.928C172.486 473.136 171.886 473.24 171.294 473.24Z" fill="black"/>
<path d="M158.825 473.24C157.689 473.24 156.713 473.016 155.897 472.568C155.081 472.104 154.449 471.48 154.001 470.696C153.569 469.896 153.353 468.984 153.353 467.96C153.353 466.984 153.601 466.096 154.097 465.296C154.593 464.496 155.257 463.856 156.089 463.376C156.921 462.896 157.849 462.656 158.873 462.656C160.185 462.656 161.273 463.04 162.137 463.808C163.001 464.576 163.585 465.632 163.889 466.976L155.705 469.856L155.177 468.536L161.897 466.088L161.417 466.4C161.225 465.872 160.905 465.416 160.457 465.032C160.009 464.632 159.425 464.432 158.705 464.432C158.097 464.432 157.553 464.584 157.073 464.888C156.593 465.176 156.217 465.576 155.945 466.088C155.673 466.6 155.537 467.184 155.537 467.84C155.537 468.528 155.681 469.136 155.969 469.664C156.257 470.176 156.649 470.584 157.145 470.888C157.657 471.176 158.233 471.32 158.873 471.32C159.305 471.32 159.721 471.24 160.121 471.08C160.537 470.92 160.921 470.712 161.273 470.456L162.305 472.112C161.809 472.448 161.249 472.72 160.625 472.928C160.017 473.136 159.417 473.24 158.825 473.24Z" fill="black"/>
<path d="M145.128 455.648C146.392 455.648 147.472 455.864 148.368 456.296C149.264 456.712 149.952 457.32 150.432 458.12C150.928 458.92 151.176 459.888 151.176 461.024C151.176 461.712 151.072 462.392 150.864 463.064C150.656 463.72 150.32 464.32 149.856 464.864C149.408 465.392 148.816 465.816 148.08 466.136C147.344 466.456 146.448 466.616 145.392 466.616H142.824V473H140.496V455.648H145.128ZM145.368 464.384C146.056 464.384 146.624 464.272 147.072 464.048C147.52 463.824 147.872 463.544 148.128 463.208C148.384 462.856 148.568 462.488 148.68 462.104C148.792 461.72 148.848 461.376 148.848 461.072C148.848 460.72 148.792 460.36 148.68 459.992C148.568 459.608 148.376 459.264 148.104 458.96C147.848 458.64 147.504 458.384 147.072 458.192C146.656 457.984 146.136 457.88 145.512 457.88H142.824V464.384H145.368Z" fill="black"/>
<defs>
<linearGradient id="paint0_linear_3_88" x1="412.94" y1="151.198" x2="150.671" y2="304.204" gradientUnits="userSpaceOnUse">
<stop stop-color="#8D0E34"/>
<stop offset="0.157672" stop-color="#C94B60"/>
<stop offset="0.464293" stop-color="#DF803A"/>
<stop offset="0.759281" stop-color="#E79B44"/>
<stop offset="1" stop-color="#EDAF4B"/>
</linearGradient>
<linearGradient id="paint1_linear_3_88" x1="412.94" y1="151.198" x2="150.671" y2="304.204" gradientUnits="userSpaceOnUse">
<stop stop-color="#8D0E34"/>
<stop offset="0.157672" stop-color="#C94B60"/>
<stop offset="0.464293" stop-color="#DF803A"/>
<stop offset="0.759281" stop-color="#E79B44"/>
<stop offset="1" stop-color="#EDAF4B"/>
</linearGradient>
<linearGradient id="paint2_linear_3_88" x1="412.939" y1="151.198" x2="150.671" y2="304.203" gradientUnits="userSpaceOnUse">
<stop stop-color="#8D0E34"/>
<stop offset="0.157672" stop-color="#C94B60"/>
<stop offset="0.464293" stop-color="#DF803A"/>
<stop offset="0.759281" stop-color="#E79B44"/>
<stop offset="1" stop-color="#EDAF4B"/>
</linearGradient>
<linearGradient id="paint3_linear_3_88" x1="412.94" y1="151.198" x2="150.671" y2="304.204" gradientUnits="userSpaceOnUse">
<stop stop-color="#8D0E34"/>
<stop offset="0.157672" stop-color="#C94B60"/>
<stop offset="0.464293" stop-color="#DF803A"/>
<stop offset="0.759281" stop-color="#E79B44"/>
<stop offset="1" stop-color="#EDAF4B"/>
</linearGradient>
<linearGradient id="paint4_linear_3_88" x1="412.94" y1="151.198" x2="150.671" y2="304.204" gradientUnits="userSpaceOnUse">
<stop stop-color="#8D0E34"/>
<stop offset="0.157672" stop-color="#C94B60"/>
<stop offset="0.464293" stop-color="#DF803A"/>
<stop offset="0.759281" stop-color="#E79B44"/>
<stop offset="1" stop-color="#EDAF4B"/>
</linearGradient>
</defs>
</svg>
