<svg width="512" height="512" viewBox="0 0 512 512" fill="none" xmlns="http://www.w3.org/2000/svg">
<path fill-rule="evenodd" clip-rule="evenodd" d="M407.739 52.8115C403.407 54.475 383.398 65.3021 381.855 66.8171C378.894 69.7246 385.748 89.6657 391.535 101.587C404.235 127.752 399.17 145.829 388.338 181.322C360.171 273.617 244.628 324.214 141.238 289.528C120.992 282.736 104.346 275.097 84.9141 261.664C70.4013 251.631 70.5289 253.194 85.1628 264.712C116.648 289.492 146.858 301.823 185.351 308.082C200.66 310.571 236.916 310.581 251.461 308.1C265.913 305.635 286.186 299.745 296.545 295.001C297.748 294.45 299.553 293.754 300.556 293.454C304.285 292.337 326.656 280.386 332.638 276.315C369.809 251.013 393.553 218.803 404.03 179.466C406.008 172.042 409.198 139.66 409.198 136.051C409.198 134.464 409.423 131.029 409.698 128.416L410.199 123.666L411.484 130.721C414.509 147.319 410.266 189.391 402.177 205.607C399.233 211.51 402.053 215.729 418.902 230.625C439.495 248.833 458.182 275.111 470.451 303.117C475.341 314.278 476.674 314.847 480.875 307.565C485.438 299.656 493.778 276.61 493.778 271.912C493.778 269.418 491.774 267.461 486.487 264.792C480.835 261.939 474.199 257.468 470.327 253.904C464.971 248.976 464.191 239.561 468.343 229.975C472.527 220.32 476.82 221.189 488.442 234.045C494.648 240.91 495.559 241.32 498.208 238.442C502.85 233.398 497.911 202.599 489.846 186.302C483.594 173.669 472.873 159.385 462.406 149.743C440.154 129.246 431.412 119.636 427.702 105.878C425.621 98.1652 427.382 78.0015 429.886 67.6957C432.29 57.8036 432.083 57.0498 426.201 54.3072C421.32 52.0309 411.785 51.2586 407.739 52.8115ZM427.449 203.663C424.334 205.039 423.806 205.847 423.791 209.257C423.779 212.281 424.967 214.14 431.007 220.554C440.637 230.779 452.71 243.44 453.495 238.642C453.859 236.414 453.495 229.73 453.859 222.303C454.224 214.877 453.827 211.902 453.019 209.737C451.154 204.742 434.152 200.702 427.449 203.663Z" fill="url(#paint0_linear_3_87)"/>
<path d="M380.761 245.481C380.761 242.774 388.297 230.404 393.04 225.324C397.745 220.285 399.297 221.24 419.13 241.409C442.81 265.491 457.437 288.121 466.366 314.498C470.681 327.244 470.663 327.994 465.873 335.205C458.311 346.593 457.082 346.337 435.802 328.96C410.111 304.366 400.3 290.898 396.986 296.94C395.058 300.456 398.931 316.136 420.165 338.022C443.129 361.691 444.137 363.15 441.587 369.041C439.947 372.833 422.876 390.597 417.595 394.008C411.455 397.974 410.542 397.16 408.112 385.551C402.612 359.276 386.332 329.106 364.761 305.218C341.704 279.685 342.597 281.726 350.916 273.583C358.799 265.866 361.022 264.581 365.645 265.066C370.181 265.543 382.868 269.738 397.531 275.609C415.43 282.776 421.638 290.208 423.791 288.771C427.063 286.587 423.699 277.77 417.743 271.932C409.852 264.194 401.072 258.557 389.264 253.644C383.492 251.244 380.761 248.621 380.761 245.481Z" fill="url(#paint1_linear_3_87)"/>
<path d="M318.784 293.489C332.725 285.99 334.335 286.437 350.707 302.335C376.243 327.135 395.019 361.404 400.847 393.852C402.82 404.832 401.164 408.225 390.325 415.421C376.926 424.317 369.233 426.381 365.801 421.999C362.919 418.321 362.343 414.096 361.845 392.978C361.284 369.21 362.352 362.69 356.519 362.664C347.965 362.628 336.468 377.755 336.468 386.429C336.468 392.306 338.343 410.981 344.304 423.055C349.59 433.766 348.536 437.055 338.221 442.03C325.243 448.287 304.819 454.289 301.904 452.701C298.851 451.037 298.563 446.94 301.007 439.887C308.087 419.447 310.163 374.536 305.646 339.507C303.704 324.442 302.539 310.26 303.03 307.66C303.888 303.12 308.36 299.097 318.784 293.489ZM340.225 320.755C333.603 313.88 330.824 312.889 327.73 316.299C324.732 319.606 323.889 323.189 323.889 332.621C323.889 346.747 327.89 360.065 332.638 360.066C336.406 360.066 348.894 342.957 350.707 339.507C352.783 335.554 348.274 329.111 340.225 320.755Z" fill="url(#paint2_linear_3_87)"/>
<path d="M258.994 319.871C258.994 314.9 260.129 314.25 275.825 310.233C293.459 305.72 293.839 306.261 296.923 340.25C300.371 378.254 299.017 411.037 293.135 431.967C291.93 436.256 290.453 441.603 289.854 443.849C286.895 454.936 283.653 457.482 270.5 459.052C258.384 460.498 257.012 459.436 254.714 446.82C248.132 410.679 247.187 406.231 243.914 395.949C240.802 386.171 236.991 379.178 231.86 376.404C226.367 373.433 228.919 390.143 230.742 400.911C231.97 405.879 232.722 421.623 233.237 437.18C233.956 458.895 232.628 460.688 216.37 459.962C206.675 459.53 191.749 457.232 189.039 455.755C185.342 453.74 184.869 450.813 187.59 446.802C191.372 441.227 197.754 426.618 200.07 418.228C205.408 398.902 207.33 364.441 204.131 345.448C201.726 331.173 201.617 323.478 203.781 320.914L205.64 318.713H217.239C228.662 318.713 228.884 318.744 231.86 320.748C236.67 323.989 241.57 328.047 251.461 347.44C259.678 363.551 266.693 383.088 271.39 377.754C278.136 370.091 274.686 358.717 265.75 338.019C259.558 323.678 258.994 322.165 258.994 319.871Z" fill="url(#paint3_linear_3_87)"/>
<path d="M35.8773 247.476C35.8773 245.769 36.2849 243.958 36.7829 243.451C38.4118 241.792 49.2308 243.813 55.1995 246.891C56.4026 247.512 60.34 250.907 63.9492 254.437C78.8624 269.023 97.2477 281.995 121.522 295.06L173.239 312.79C188.602 316.766 187.103 318.321 190.013 334.377C195.784 366.234 194.871 391.72 187.022 417.857C182.898 431.585 174.337 447.116 169.642 449.385C165.599 451.34 157.77 449.163 147.17 444.243C147.17 444.243 137.957 441.621 117.177 428.625C96.396 415.629 91.6566 414.515 58.7578 383.969C25.8589 353.424 9.02086 308.438 12.434 274.52C13.5991 262.935 15.7785 259.073 19.4767 262.037C21.584 263.725 22.4954 263.289 22.8731 260.415C23.0736 258.89 23.6081 258.492 25.8604 258.187C28.1032 257.883 28.8338 257.342 29.8707 255.218C30.5677 253.79 31.7941 252.501 32.5962 252.353C35.0716 251.899 35.8773 250.701 35.8773 247.476Z" fill="url(#paint4_linear_3_87)"/>
<path d="M36.7829 243.451C38.4118 241.792 49.2311 243.812 55.1999 246.89C56.403 247.511 60.3397 250.908 63.9489 254.437C78.862 269.023 97.2476 281.996 121.522 295.06L173.239 312.79C188.602 316.766 187.103 318.321 190.012 334.378C192.705 349.24 193.942 362.715 193.699 375.516C118.163 349.9 49.7835 306.699 14.7594 263.3C15.9471 260.822 17.4932 260.447 19.4772 262.037C21.5843 263.724 22.495 263.289 22.8727 260.415C23.0732 258.89 23.6079 258.492 25.86 258.186C28.1028 257.883 28.834 257.342 29.8708 255.219C30.5678 253.79 31.7943 252.501 32.5963 252.353C35.0716 251.899 35.8775 250.701 35.8776 247.476C35.8776 245.77 36.2849 243.958 36.7829 243.451Z" fill="white" fill-opacity="0.12"/>
<path d="M386.508 89.8325C400.488 95.6972 414.428 101.584 428.141 107.411C432.088 120.373 440.989 130.015 462.406 149.743C472.873 159.384 483.594 173.669 489.845 186.302C497.91 202.599 502.849 233.399 498.208 238.443C495.559 241.32 494.647 240.909 488.442 234.045C476.82 221.189 472.527 220.32 468.343 229.975C464.191 239.561 464.971 248.977 470.327 253.905C474.198 257.468 480.835 261.938 486.486 264.792C491.773 267.461 493.778 269.419 493.778 271.913C493.778 276.611 485.438 299.656 480.875 307.565C476.674 314.847 475.34 314.278 470.451 303.117C458.182 275.111 439.495 248.833 418.902 230.625C402.053 215.729 399.233 211.51 402.177 205.607C410.266 189.391 414.508 147.32 411.484 130.721L410.199 123.666L409.699 128.417C409.423 131.029 409.198 134.464 409.198 136.05C409.198 139.66 406.007 172.041 404.03 179.465C393.553 218.803 369.809 251.013 332.637 276.315C326.655 280.386 304.285 292.337 300.555 293.454C299.553 293.754 297.749 294.449 296.546 295C286.186 299.745 265.912 305.635 251.461 308.1C236.916 310.58 200.659 310.571 185.351 308.082C146.858 301.822 116.648 289.491 85.1628 264.711C70.5292 253.194 70.4014 251.631 84.9138 261.664C104.346 275.097 120.992 282.736 141.238 289.528C244.628 324.213 360.171 273.617 388.339 181.322C399.171 145.829 404.235 127.752 391.535 101.587C389.861 98.1382 388.098 94.0175 386.508 89.8325ZM453.019 209.738C451.154 204.742 434.151 200.702 427.449 203.663C424.334 205.039 423.806 205.848 423.792 209.257C423.779 212.281 424.967 214.14 431.007 220.554C440.636 230.779 452.709 243.439 453.495 238.642C453.859 236.414 453.495 229.73 453.859 222.303C454.224 214.877 453.827 211.903 453.019 209.738Z" fill="white" fill-opacity="0.14"/>
<path d="M393.04 225.324C397.745 220.284 399.296 221.241 419.13 241.41C442.81 265.491 457.437 288.121 466.366 314.498C470.681 327.244 470.663 327.994 465.873 335.206C458.311 346.593 457.082 346.337 435.801 328.96C410.111 304.366 400.3 290.898 396.986 296.94C395.058 300.457 398.932 316.136 420.166 338.021C431.247 349.443 437.215 355.693 440.138 359.765C428.921 366.087 417.496 371.871 405.965 376.935C399.041 352.847 384.007 326.533 364.76 305.218C341.704 279.686 342.597 281.727 350.916 273.584C358.799 265.866 361.022 264.58 365.645 265.066C370.181 265.543 382.868 269.738 397.531 275.609C415.429 282.776 421.639 290.208 423.792 288.771C427.063 286.588 423.698 277.77 417.743 271.931C409.851 264.194 401.072 258.557 389.264 253.644C383.493 251.244 380.761 248.621 380.761 245.48C380.762 242.773 388.297 230.403 393.04 225.324Z" fill="white" fill-opacity="0.24"/>
<path d="M318.784 293.489C332.725 285.99 334.335 286.437 350.707 302.335C372.739 323.731 389.737 352.177 397.731 380.419C385.816 385.268 373.813 389.308 361.831 392.341C361.304 369.094 362.3 362.69 356.52 362.664C347.965 362.628 336.468 377.755 336.468 386.429C336.468 388.582 336.719 392.451 337.331 397.085C327.299 398.403 317.335 398.908 307.504 398.483C308.582 379.463 308.043 358.094 305.647 339.507C303.704 324.442 302.539 310.26 303.03 307.66C303.888 303.12 308.36 299.097 318.784 293.489ZM340.226 320.755C333.604 313.88 330.824 312.889 327.731 316.299C324.732 319.606 323.889 323.189 323.889 332.621C323.889 346.747 327.89 360.065 332.638 360.066C336.407 360.065 348.894 342.957 350.707 339.507C352.784 335.554 348.274 329.11 340.226 320.755Z" fill="white" fill-opacity="0.2"/>
<path d="M275.826 310.233C293.459 305.72 293.84 306.262 296.923 340.249C298.849 361.473 299.276 381.069 298.254 397.881C279.451 396.377 260.366 393.339 241.383 389.028C238.77 382.875 235.681 378.47 231.86 376.404C228.698 374.694 228.203 379.507 228.7 385.954C220.899 383.947 213.131 381.732 205.422 379.328C206.006 366.736 205.636 354.381 204.131 345.448C201.727 331.174 201.617 323.478 203.781 320.914L205.639 318.712H217.239C228.662 318.712 228.884 318.744 231.86 320.748C236.669 323.988 241.571 328.046 251.462 347.44C259.678 363.551 266.694 383.087 271.39 377.753C278.137 370.091 274.687 358.717 265.751 338.02C259.559 323.678 258.995 322.164 258.995 319.87C258.995 314.9 260.13 314.25 275.826 310.233Z" fill="white" fill-opacity="0.18"/>
<defs>
<linearGradient id="paint0_linear_3_87" x1="482.296" y1="200.024" x2="126.776" y2="407.432" gradientUnits="userSpaceOnUse">
<stop stop-color="#8D0E34"/>
<stop offset="0.157672" stop-color="#C94B60"/>
<stop offset="0.464293" stop-color="#DF803A"/>
<stop offset="0.759281" stop-color="#E79B44"/>
<stop offset="1" stop-color="#EDAF4B"/>
</linearGradient>
<linearGradient id="paint1_linear_3_87" x1="482.296" y1="200.024" x2="126.776" y2="407.432" gradientUnits="userSpaceOnUse">
<stop stop-color="#8D0E34"/>
<stop offset="0.157672" stop-color="#C94B60"/>
<stop offset="0.464293" stop-color="#DF803A"/>
<stop offset="0.759281" stop-color="#E79B44"/>
<stop offset="1" stop-color="#EDAF4B"/>
</linearGradient>
<linearGradient id="paint2_linear_3_87" x1="482.296" y1="200.024" x2="126.777" y2="407.432" gradientUnits="userSpaceOnUse">
<stop stop-color="#8D0E34"/>
<stop offset="0.157672" stop-color="#C94B60"/>
<stop offset="0.464293" stop-color="#DF803A"/>
<stop offset="0.759281" stop-color="#E79B44"/>
<stop offset="1" stop-color="#EDAF4B"/>
</linearGradient>
<linearGradient id="paint3_linear_3_87" x1="482.296" y1="200.024" x2="126.776" y2="407.432" gradientUnits="userSpaceOnUse">
<stop stop-color="#8D0E34"/>
<stop offset="0.157672" stop-color="#C94B60"/>
<stop offset="0.464293" stop-color="#DF803A"/>
<stop offset="0.759281" stop-color="#E79B44"/>
<stop offset="1" stop-color="#EDAF4B"/>
</linearGradient>
<linearGradient id="paint4_linear_3_87" x1="482.296" y1="200.024" x2="126.776" y2="407.432" gradientUnits="userSpaceOnUse">
<stop stop-color="#8D0E34"/>
<stop offset="0.157672" stop-color="#C94B60"/>
<stop offset="0.464293" stop-color="#DF803A"/>
<stop offset="0.759281" stop-color="#E79B44"/>
<stop offset="1" stop-color="#EDAF4B"/>
</linearGradient>
</defs>
</svg>
